#!OML:ASF H:\Terrain\Patient Classification 1\Terrain2\Thursday\justin.ASF
:FULLY-SPECIFIED
:DEGREES
3498
root 18.9177 20.5365 -11.3215 1796.92 13.1931 357.854
lowerback 6.51811 0.0839733 -1.80032
upperback 2.48068 0.051846 2.61398
thorax -1.09916 0.0136874 3.70601
lowerneck -12.8846 -4.11337 -10.3445
upperneck 37.5455 -5.46532 6.55798
head 16.0093 -2.83101 3.77105
rclavicle 2.15433e-014 1.59028e-015
rhumerus -29.2665 -7.4191 -77.2772
rradius 39.3053
rwrist -16.2551
rhand -22.5188 10.9012
rfingers 7.12502
rthumb 3.90782 -19.0428
lclavicle 2.15433e-014 1.59028e-015
lhumerus -35.2378 5.50579 85.1025
lradius 26.3646
lwrist 0.381436
lhand -17.0089 23.5714
lfingers 7.12502
lthumb 9.22672 53.3496
rfemur -9.19835 10.4792 15.2876
rtibia 33.8271
rfoot -16.0418 28.3578
rtoes 21.4551
lfemur -4.1037 -6.84839 -13.8208
ltibia 25.458
lfoot -13.9962 -21.2353
ltoes 15.1473
3499
root 18.9492 20.5432 -11.3484 1797.21 12.6109 358.294
lowerback 6.5527 0.106237 -2.2834
upperback 2.31099 0.0491626 2.47645
thorax -1.2927 0.0161441 3.83768
lowerneck -12.5878 -4.14587 -10.3037
upperneck 37.5678 -5.55007 6.50519
head 15.9551 -2.87615 3.72731
rclavicle -7.92654e-015 6.36111e-015
rhumerus -29.6517 -7.84312 -77.241
rradius 39.358
rwrist -16.3524
rhand -22.4952 11.1779
rfingers 7.12502
rthumb 3.93054 -18.7656
lclavicle -7.92654e-015 6.36111e-015
lhumerus -35.0123 5.57007 84.5525
lradius 26.1057
lwrist 0.0991689
lhand -16.9909 23.4311
lfingers 7.12502
lthumb 9.24416 53.2085
rfemur -10.0738 10.7556 14.7918
rtibia 34.7924
rfoot -16.0533 27.6606
rtoes 20.716
lfemur -3.9934 -6.30258 -14.3201
ltibia 24.9152
lfoot -13.8545 -21.299
ltoes 14.9545
3500
root 18.9849 20.5566 -11.3636 1797.46 11.8876 358.569
lowerback 6.36718 0.135432 -2.61496
upperback 2.22939 0.0689383 2.43131
thorax -1.27508 0.0259404 3.97679
lowerneck -12.3119 -4.12689 -10.3787
upperneck 37.5416 -5.51724 6.45349
head 15.8719 -2.88728 3.72346
rclavicle 8.94531e-015 -2.3059e-014
rhumerus -29.8937 -7.99991 -77.1999
rradius 39.3143
rwrist -16.6082
rhand -22.4455 11.1861
rfingers 7.12502
rthumb 3.97861 -18.7565
lclavicle 8.94531e-015 -2.3059e-014
lhumerus -34.7189 5.62876 84.1385
lradius 25.9361
lwrist 0.148658
lhand -17.1355 23.6206
lfingers 7.12502
lthumb 9.10459 53.4041
rfemur -10.9833 11.1125 14.4781
rtibia 35.7979
rfoot -15.7853 26.9356
rtoes 19.8802
lfemur -3.82988 -5.81226 -14.6789
ltibia 24.4098
lfoot -13.7863 -21.066
ltoes 14.2735
3501
root 19.0233 20.5676 -11.3835 1797.54 11.2629 358.726
lowerback 6.31049 0.156723 -2.73282
upperback 2.30553 0.0903938 2.42739
thorax -1.1668 0.033046 4.03767
lowerneck -12.4465 -4.12733 -10.4473
upperneck 37.5922 -5.45828 6.36189
head 15.9237 -2.88579 3.7055
rclavicle -2.5842e-015 -9.54166e-015
rhumerus -29.9213 -8.25787 -77.1337
rradius 39.1935
rwrist -16.6422
rhand -22.4922 11.0307
rfingers 7.12502
rthumb 3.93352 -18.9128
lclavicle -2.5842e-015 -9.54166e-015
lhumerus -34.1518 5.92257 83.7782
lradius 25.7124
lwrist -0.0991495
lhand -17.5272 23.9828
lfingers 7.12502
lthumb 8.72657 53.7824
rfemur -11.6658 11.191 14.3015
rtibia 36.793
rfoot -16.8342 25.708
rtoes 14.5878
lfemur -3.5672 -5.61114 -14.9673
ltibia 23.9617
lfoot -13.7084 -20.7151
ltoes 13.9721
3502
root 19.0604 20.5792 -11.4076 1797.65 10.723 358.867
lowerback 6.2631 0.157117 -2.77233
upperback 2.40063 0.0879498 2.37527
thorax -1.04208 0.0278497 4.00566
lowerneck -12.6879 -4.1182 -10.5413
upperneck 37.6233 -5.45196 6.4966
head 16.0068 -2.87865 3.78231
rclavicle -9.79014e-015 0
rhumerus -29.8877 -8.61382 -77.1709
rradius 39.144
rwrist -16.4397
rhand -22.3379 10.9047
rfingers 7.12502
rthumb 4.0825 -19.0359
lclavicle -9.79014e-015 0
lhumerus -33.5695 6.52086 83.1663
lradius 25.52
lwrist -0.819167
lhand -17.2765 23.7735
lfingers 7.12502
lthumb 8.9685 53.5629
rfemur -12.3373 11.0739 14.1702
rtibia 37.7414
rfoot -19.4658 23.7777
rtoes 6.40883
lfemur -3.41179 -5.60187 -15.2738
ltibia 23.599
lfoot -13.7449 -20.1561
ltoes 13.0705
3503
root 19.0974 20.5923 -11.4259 1797.88 9.94297 358.951
lowerback 6.05175 0.233674 -2.78455
upperback 2.39749 0.191971 2.33236
thorax -0.9371 0.077803 3.96018
lowerneck -12.7893 -4.08705 -10.5998
upperneck 37.6231 -5.42182 6.59411
head 16.0333 -2.8629 3.84029
rclavicle -1.44119e-015 -3.97569e-015
rhumerus -30.0376 -8.75419 -77.256
rradius 39.1233
rwrist -16.3918
rhand -22.1966 10.7355
rfingers 7.12502
rthumb 4.21895 -19.2025
lclavicle -1.44119e-015 -3.97569e-015
lhumerus -33.274 6.82492 82.6425
lradius 25.586
lwrist -0.901939
lhand -17.4239 23.9389
lfingers 7.12502
lthumb 8.82629 53.7344
rfemur -13.1706 11.0931 14.1059
rtibia 38.6126
rfoot -20.711 22.1788
rtoes 2.39346
lfemur -3.41478 -5.45715 -15.5301
ltibia 23.4063
lfoot -14.1541 -19.2588
ltoes 11.0547
3504
root 19.1335 20.608 -11.4426 1798.05 9.13355 358.829
lowerback 5.93453 0.310488 -2.6111
upperback 2.33366 0.306286 2.36141
thorax -0.947586 0.136613 3.88416
lowerneck -12.8098 -4.05403 -10.7025
upperneck 37.6471 -5.35982 6.62705
head 16.0485 -2.85028 3.88455
rclavicle -1.02374e-014 -2.38542e-015
rhumerus -30.3313 -8.66531 -77.346
rradius 39.0518
rwrist -16.3684
rhand -22.6397 10.4381
rfingers 7.12502
rthumb 3.79106 -19.508
lclavicle -1.02374e-014 -2.38542e-015
lhumerus -33.1475 6.91054 82.2505
lradius 25.8493
lwrist -0.592414
lhand -18.0658 24.3797
lfingers 7.12502
lthumb 8.20681 54.2003
rfemur -13.9233 11.07 14.3092
rtibia 39.4151
rfoot -19.7029 21.2609
rtoes 2.45555
lfemur -3.46474 -5.21767 -15.5514
ltibia 23.3741
lfoot -14.6827 -18.4737
ltoes 9.33463
3505
root 19.1659 20.6094 -11.4627 1798.05 8.53479 358.567
lowerback 6.00754 0.333352 -2.29067
upperback 2.28796 0.354334 2.40764
thorax -1.0385 0.16385 3.74719
lowerneck -12.6992 -4.0131 -10.8144
upperneck 37.584 -5.34264 6.78579
head 15.9966 -2.84166 3.97588
rclavicle -3.7123e-014 -9.14409e-015
rhumerus -30.6465 -8.60109 -77.4726
rradius 38.9387
rwrist -16.3524
rhand -23.0153 10.4248
rfingers 7.12502
rthumb 3.4283 -19.5274
lclavicle -3.7123e-014 -9.14409e-015
lhumerus -33.0165 6.90244 81.7995
lradius 26.095
lwrist -0.446462
lhand -18.1082 24.6806
lfingers 7.12502
lthumb 8.16594 54.5028
rfemur -14.3623 10.8319 14.7506
rtibia 40.2043
rfoot -19.366 19.983
rtoes 2.61743
lfemur -3.40316 -5.02898 -15.4107
ltibia 23.3064
lfoot -14.96 -17.9563
ltoes 8.56749
3506
root 19.1959 20.5979 -11.4811 1798.02 7.97414 358.571
lowerback 6.09068 0.35049 -2.24235
upperback 2.29778 0.378063 2.37964
thorax -1.07624 0.176319 3.689
lowerneck -12.606 -3.96641 -10.725
upperneck 37.4308 -5.27027 6.68225
head 15.8775 -2.81331 3.91911
rclavicle 2.53947e-014 1.78906e-014
rhumerus -30.8815 -8.61839 -77.6291
rradius 38.8585
rwrist -16.4639
rhand -22.716 10.4317
rfingers 7.12502
rthumb 3.7174 -19.5157
lclavicle 2.53947e-014 1.78906e-014
lhumerus -32.8388 6.90211 81.3147
lradius 26.2558
lwrist -0.138991
lhand -17.9913 24.9711
lfingers 7.12502
lthumb 8.27875 54.7889
rfemur -14.6563 10.4639 14.9677
rtibia 40.9869
rfoot -20.2162 18.2525
rtoes 1.02082
lfemur -3.21495 -4.79748 -15.5605
ltibia 23.129
lfoot -15.1125 -17.4726
ltoes 8.07405
3507
root 19.2238 20.6018 -11.4991 1797.97 7.43336 359.065
lowerback 6.30994 0.391132 -2.66767
upperback 2.29801 0.400331 2.19735
thorax -1.20069 0.188632 3.73878
lowerneck -12.5358 -3.89453 -10.531
upperneck 37.3131 -5.13881 6.44865
head 15.7666 -2.76238 3.79801
rclavicle 4.47266e-016 -1.98785e-015
rhumerus -31.1173 -8.6164 -77.8368
rradius 38.7515
rwrist -16.6344
rhand -22.4696 10.0865
rfingers 7.12502
rthumb 3.95533 -19.8566
lclavicle 4.47266e-016 -1.98785e-015
lhumerus -32.7997 6.92427 80.775
lradius 26.5316
lwrist 0.223673
lhand -18.0963 25.3273
lfingers 7.12502
lthumb 8.17742 55.1491
rfemur -15.011 9.96218 14.6981
rtibia 41.7799
rfoot -20.9105 16.7475
rtoes -0.922783
lfemur -2.88239 -4.52455 -16.2366
ltibia 22.8346
lfoot -15.0797 -17.1253
ltoes 8.41467
3508
root 19.2496 20.6173 -11.5157 1797.89 6.93422 359.177
lowerback 6.51871 0.418842 -2.71165
upperback 2.28013 0.428844 2.1142
thorax -1.33734 0.205582 3.67484
lowerneck -12.4523 -3.80605 -10.4021
upperneck 37.3033 -5.0148 6.33882
head 15.716 -2.70944 3.74727
rclavicle 1.92573e-014 2.78299e-015
rhumerus -31.4399 -8.33109 -78.1543
rradius 38.8315
rwrist -17.4656
rhand -22.7306 9.47478
rfingers 7.12502
rthumb 3.70321 -20.4728
lclavicle 1.92573e-014 2.78299e-015
lhumerus -32.8708 6.72627 80.3294
lradius 27.0308
lwrist 0.685142
lhand -18.4812 25.9211
lfingers 7.12502
lthumb 7.80595 55.757
rfemur -15.4163 9.39177 14.8772
rtibia 42.5963
rfoot -21.1832 15.626
rtoes -0.938967
lfemur -2.48584 -4.34289 -16.4619
ltibia 22.3684
lfoot -14.8571 -16.843
ltoes 9.07988
3509
root 19.278 20.6315 -11.5269 1797.87 6.52402 358.923
lowerback 6.48944 0.343672 -2.45013
upperback 2.31424 0.347192 2.21813
thorax -1.27854 0.16347 3.64094
lowerneck -12.5925 -3.70329 -10.4643
upperneck 37.4503 -4.82534 6.30873
head 15.8024 -2.64563 3.78253
rclavicle -5.86415e-015 -7.15625e-015
rhumerus -31.5717 -8.24309 -78.1484
rradius 38.3988
rwrist -16.8326
rhand -21.6905 10.6444
rfingers 7.12502
rthumb 4.70766 -19.2833
lclavicle -5.86415e-015 -7.15625e-015
lhumerus -32.7365 6.77103 80.0216
lradius 27.3811
lwrist 1.39434
lhand -18.8469 25.6508
lfingers 7.12502
lthumb 7.45295 55.4996
rfemur -15.8211 8.66469 15.4248
rtibia 43.3905
rfoot -21.3272 14.5775
rtoes 0.475632
lfemur -2.17707 -4.35382 -16.3035
ltibia 21.8643
lfoot -14.7257 -16.4147
ltoes 8.53888
3510
root 19.3065 20.6397 -11.5371 1798.01 6.12238 359.087
lowerback 6.32763 0.250592 -2.63242
upperback 2.353 0.214711 2.23846
thorax -1.1381 0.093486 3.77512
lowerneck -12.8182 -3.5899 -10.6314
upperneck 37.6047 -4.61652 6.37566
head 15.9184 -2.57578 3.88343
rclavicle -5.41688e-015 4.77083e-015
rhumerus -31.5455 -7.91774 -78.2654
rradius 38.0491
rwrist -16.3235
rhand -21.2175 10.8619
rfingers 7.12502
rthumb 5.16431 -19.0551
lclavicle -5.41688e-015 4.77083e-015
lhumerus -32.4006 7.24505 79.6423
lradius 27.4262
lwrist 1.93204
lhand -18.9189 25.0459
lfingers 7.12502
lthumb 7.38339 54.8971
rfemur -16.2405 7.92239 15.4671
rtibia 44.1319
rfoot -22.3296 13.3317
rtoes -0.905662
lfemur -2.05237 -4.40541 -16.6153
ltibia 21.5079
lfoot -14.6431 -15.9792
ltoes 7.87072
3511
root 19.3308 20.6392 -11.5497 1798.15 5.56189 359.131
lowerback 6.24225 0.259205 -2.64833
upperback 2.31549 0.226173 2.21746
thorax -1.13027 0.099489 3.7614
lowerneck -12.8822 -3.5018 -10.5929
upperneck 37.6532 -4.47381 6.3203
head 15.9371 -2.52024 3.87788
rclavicle 5.61567e-015 1.19271e-014
rhumerus -31.6858 -7.74596 -78.4439
rradius 37.7438
rwrist -16.0877
rhand -20.848 10.7597
rfingers 7.12502
rthumb 5.52115 -19.1484
lclavicle 5.61567e-015 1.19271e-014
lhumerus -32.2132 7.48057 79.1811
lradius 27.6201
lwrist 2.11362
lhand -18.9143 25.5511
lfingers 7.12502
lthumb 7.38789 55.4021
rfemur -16.6557 7.40599 15.69
rtibia 44.8104
rfoot -23.7145 12.2068
rtoes -3.28608
lfemur -2.00691 -4.2547 -16.7416
ltibia 21.2639
lfoot -14.6388 -15.7593
ltoes 7.67586
